<mxfile host="app.diagrams.net" modified="2020-12-03T09:11:36.321Z" agent="5.0 (Windows NT 10.0; Win64; x64) AppleWebKit/537.36 (KHTML, like Gecko) Chrome/87.0.4280.67 Safari/537.36 Edg/87.0.664.52" etag="8x7JRLVwLFoPHpK4yd2w" version="13.10.6" type="github">
  <diagram id="4mu_VsUJUEG9aU0Qgn0D" name="Page-1">
    <mxGraphModel dx="1395" dy="900" grid="1" gridSize="10" guides="1" tooltips="1" connect="1" arrows="1" fold="1" page="1" pageScale="1" pageWidth="827" pageHeight="1169" math="0" shadow="0">
      <root>
        <mxCell id="0" />
        <mxCell id="1" parent="0" />
        <mxCell id="Yh4DcJs_3DgUc0yio_fJ-1" value="Quản lý&amp;nbsp;&lt;span style=&quot;color: rgba(0 , 0 , 0 , 0) ; font-family: monospace ; font-size: 0px&quot;&gt;%3CmxGraphModel%3E%3Croot%3E%3CmxCell%20id%3D%220%22%2F%3E%3CmxCell%20id%3D%221%22%20parent%3D%220%22%2F%3E%3CmxCell%20id%3D%222%22%20value%3D%223.1%22%20style%3D%22swimlane%3BchildLayout%3DstackLayout%3Bhorizontal%3D1%3BstartSize%3D30%3BhorizontalStack%3D0%3Brounded%3D1%3BfontSize%3D14%3BfontStyle%3D0%3BstrokeWidth%3D2%3BresizeParent%3D0%3BresizeLast%3D1%3Bshadow%3D0%3Bdashed%3D0%3Balign%3Dcenter%3B%22%20vertex%3D%221%22%20parent%3D%221%22%3E%3CmxGeometry%20x%3D%22150%22%20y%3D%22240%22%20width%3D%22160%22%20height%3D%22120%22%20as%3D%22geometry%22%2F%3E%3C%2FmxCell%3E%3CmxCell%20id%3D%223%22%20value%3D%22%26lt%3Bfont%20style%3D%26quot%3Bfont-size%3A%2016px%26quot%3B%26gt%3BT%E1%BA%A1o%20TTNCC%26lt%3B%2Ffont%26gt%3B%22%20style%3D%22text%3Bhtml%3D1%3Balign%3Dcenter%3BverticalAlign%3Dmiddle%3Bresizable%3D0%3Bpoints%3D%5B%5D%3Bautosize%3D1%3B%22%20vertex%3D%221%22%20parent%3D%222%22%3E%3CmxGeometry%20y%3D%2230%22%20width%3D%22160%22%20height%3D%2290%22%20as%3D%22geometry%22%2F%3E%3C%2FmxCell%3E%3C%2Froot%3E%3C%2FmxGraphModel%3E&lt;/span&gt;" style="html=1;dashed=0;whitespace=wrap;" vertex="1" parent="1">
          <mxGeometry x="290" y="150" width="100" height="50" as="geometry" />
        </mxCell>
        <mxCell id="Yh4DcJs_3DgUc0yio_fJ-2" value="4.1" style="swimlane;childLayout=stackLayout;horizontal=1;startSize=30;horizontalStack=0;rounded=1;fontSize=14;fontStyle=0;strokeWidth=2;resizeParent=0;resizeLast=1;shadow=0;dashed=0;align=center;" vertex="1" parent="1">
          <mxGeometry x="-30" y="240" width="160" height="120" as="geometry" />
        </mxCell>
        <mxCell id="Yh4DcJs_3DgUc0yio_fJ-3" value="&lt;font style=&quot;font-size: 16px&quot;&gt;Thống kê doanh thu&lt;/font&gt;" style="text;html=1;align=center;verticalAlign=middle;resizable=0;points=[];autosize=1;" vertex="1" parent="Yh4DcJs_3DgUc0yio_fJ-2">
          <mxGeometry y="30" width="160" height="90" as="geometry" />
        </mxCell>
        <mxCell id="Yh4DcJs_3DgUc0yio_fJ-4" value="4.2" style="swimlane;childLayout=stackLayout;horizontal=1;startSize=30;horizontalStack=0;rounded=1;fontSize=14;fontStyle=0;strokeWidth=2;resizeParent=0;resizeLast=1;shadow=0;dashed=0;align=center;" vertex="1" parent="1">
          <mxGeometry x="254" y="390" width="160" height="120" as="geometry" />
        </mxCell>
        <mxCell id="Yh4DcJs_3DgUc0yio_fJ-5" value="&lt;font style=&quot;font-size: 16px&quot;&gt;Thống kê sản phẩm&lt;/font&gt;" style="text;html=1;align=center;verticalAlign=middle;resizable=0;points=[];autosize=1;" vertex="1" parent="Yh4DcJs_3DgUc0yio_fJ-4">
          <mxGeometry y="30" width="160" height="90" as="geometry" />
        </mxCell>
        <mxCell id="Yh4DcJs_3DgUc0yio_fJ-6" value="4.3" style="swimlane;childLayout=stackLayout;horizontal=1;startSize=30;horizontalStack=0;rounded=1;fontSize=14;fontStyle=0;strokeWidth=2;resizeParent=0;resizeLast=1;shadow=0;dashed=0;align=center;" vertex="1" parent="1">
          <mxGeometry x="510" y="240" width="160" height="120" as="geometry" />
        </mxCell>
        <mxCell id="Yh4DcJs_3DgUc0yio_fJ-7" value="&lt;font style=&quot;font-size: 16px&quot;&gt;Thống kê công nợ&lt;/font&gt;" style="text;html=1;align=center;verticalAlign=middle;resizable=0;points=[];autosize=1;" vertex="1" parent="Yh4DcJs_3DgUc0yio_fJ-6">
          <mxGeometry y="30" width="160" height="90" as="geometry" />
        </mxCell>
        <mxCell id="Yh4DcJs_3DgUc0yio_fJ-8" value="4.4" style="swimlane;childLayout=stackLayout;horizontal=1;startSize=30;horizontalStack=0;rounded=1;fontSize=14;fontStyle=0;strokeWidth=2;resizeParent=0;resizeLast=1;shadow=0;dashed=0;align=center;" vertex="1" parent="1">
          <mxGeometry x="70" y="60" width="160" height="120" as="geometry" />
        </mxCell>
        <mxCell id="Yh4DcJs_3DgUc0yio_fJ-9" value="&lt;font style=&quot;font-size: 16px&quot;&gt;Thống kê chi&lt;/font&gt;" style="text;html=1;align=center;verticalAlign=middle;resizable=0;points=[];autosize=1;" vertex="1" parent="Yh4DcJs_3DgUc0yio_fJ-8">
          <mxGeometry y="30" width="160" height="90" as="geometry" />
        </mxCell>
        <mxCell id="Yh4DcJs_3DgUc0yio_fJ-10" value="4.4" style="swimlane;childLayout=stackLayout;horizontal=1;startSize=30;horizontalStack=0;rounded=1;fontSize=14;fontStyle=0;strokeWidth=2;resizeParent=0;resizeLast=1;shadow=0;dashed=0;align=center;" vertex="1" parent="1">
          <mxGeometry x="414" y="10" width="160" height="120" as="geometry" />
        </mxCell>
        <mxCell id="Yh4DcJs_3DgUc0yio_fJ-11" value="&lt;span style=&quot;font-size: 16px&quot;&gt;Thống kê lợi nhuận&lt;/span&gt;" style="text;html=1;align=center;verticalAlign=middle;resizable=0;points=[];autosize=1;" vertex="1" parent="Yh4DcJs_3DgUc0yio_fJ-10">
          <mxGeometry y="30" width="160" height="90" as="geometry" />
        </mxCell>
        <mxCell id="Yh4DcJs_3DgUc0yio_fJ-12" value="Sản phẩm&amp;nbsp;" style="html=1;dashed=0;whitespace=wrap;shape=partialRectangle;right=0;left=0;" vertex="1" parent="1">
          <mxGeometry x="170" y="600" width="100" height="30" as="geometry" />
        </mxCell>
        <mxCell id="Yh4DcJs_3DgUc0yio_fJ-13" value="Hóa đơn" style="html=1;dashed=0;whitespace=wrap;shape=partialRectangle;right=0;left=0;" vertex="1" parent="1">
          <mxGeometry x="380" y="600" width="100" height="30" as="geometry" />
        </mxCell>
      </root>
    </mxGraphModel>
  </diagram>
</mxfile>
